<svg xmlns="http://www.w3.org/2000/svg" width="24px" height="24px" viewBox="0 0 24 24" fill="currentColor">
    <path d="M0 0h24v24H0V0z" fill="none"></path>
    <path d="M18 19H6c-.55 0-1-.45-1-1V6c0-.55.45-1 1-1h12c.55 0 1 .45 1 1v12c0 .55-.45 1-1 1zm1-16H5c-1.1 0-2 .9-2 2v14c0 1.1.9 2 2 2h14c1.1 0 2-.9 2-2V5c0-1.1-.9-2-2-2z"></path>
    <g transform="translate(7.75 17.5) scale(0.0075 -0.0075)">
        <path d="M832 877q0 152 -28 247.5t-77 147.5q-44 48 -89 66t-99 18q-123 0 -196 -88t-73 -255q0 -94 24 -155t78 -105q38 -31 86 -41.5t103 -10.5q64 0 138 22.5t129 59.5q1 15 2.5 39.5t1.5 54.5zM67 1005q0 115 37.5 210t102.5 164q62 66 151.5 103t181.5 37q103 0 186.5 -34.5 t144.5 -99.5q77 -82 119.5 -215t42.5 -336q0 -185 -41.5 -350.5t-122.5 -274.5q-86 -116 -206.5 -177t-297.5 -61q-40 0 -85 4.5t-84 16.5v191h10q25 -14 78 -27t108 -13q196 0 308 129t127 369q-80 -54 -152.5 -79t-157.5 -25q-83 0 -151 18t-137 70q-80 61 -121 154.5 t-41 225.5z"></path>
    </g>
</svg>