<svg xmlns="http://www.w3.org/2000/svg" width="24px" height="24px" viewBox="0 0 24 24" fill="currentColor">
    <path d="M18 19H6c-.55 0-1-.45-1-1V6c0-.55.45-1 1-1h12c.55 0 1 .45 1 1v12c0 .55-.45 1-1 1zm1-16H5c-1.1 0-2 .9-2 2v14c0 1.1.9 2 2 2h14c1.1 0 2-.9 2-2V5c0-1.1-.9-2-2-2z"></path>
    <path transform="translate(6.2 11.2) scale(0.0035 -0.0035)"
          d="M1179 0h-984v260h314v787h-314v243q69 0 137 9t109 29q48 24 74.5 64.5t30.5 100.5h326v-1233h307v-260z"></path>
    <path transform="translate(13.2 11.2) scale(0.0035 -0.0035)"
          d="M1245 0h-1094v243q139 110 249.5 208t194.5 186q109 115 158 202t49 179q0 104 -62 159.5t-173 55.5q-57 0 -107.5 -14t-102.5 -36q-51 -23 -87 -47l-54 -36h-29v325q63 30 197 61.5t258 31.5q265 0 401.5 -118t136.5 -332q0 -132 -62 -258.5t-206 -271.5 q-90 -89 -175 -158.5t-123 -98.5h631v-281z"></path>
    <path transform="translate(6.2 18) scale(0.0035 -0.0035)"
          d="M1208 451q0 -109 -40.5 -199t-118.5 -153q-79 -63 -185.5 -96.5t-259.5 -33.5q-174 0 -298.5 29t-202.5 65v323h36q82 -52 192.5 -90t201.5 -38q54 0 117.5 9.5t106.5 41.5q34 25 54.5 61.5t20.5 103.5q0 66 -29 101.5t-77 51.5q-48 17 -115 19t-118 2h-64v262h59 q68 0 125 6t97 24q40 19 62.5 53t22.5 92q0 45 -21 73.5t-52 44.5q-36 18 -84 24t-82 6q-55 0 -112 -13t-111 -33q-42 -16 -88 -41.5t-68 -38.5h-31v319q77 33 207.5 63.5t266.5 30.5q133 0 230.5 -23t166.5 -67q76 -47 114 -119.5t38 -163.5q0 -127 -73.5 -222.5 t-193.5 -123.5v-14q53 -8 103.5 -27t98.5 -62q45 -39 74.5 -100.5t29.5 -146.5z"></path>
</svg>